<?xml version="1.0" standalone="no"?>
<!DOCTYPE svg PUBLIC "-//W3C//DTD SVG 20010904//EN"
 "http://www.w3.org/TR/2001/REC-SVG-20010904/DTD/svg10.dtd">
<svg version="1.0" xmlns="http://www.w3.org/2000/svg"
 width="193" height="52" viewBox="0 0 522.000000 402.000000"
 preserveAspectRatio="xMidYMid meet">

<g transform="translate(0.000000,402.000000) scale(0.100000,-0.100000)"
fill="#fff" stroke="none">
<path d="M2420 4004 c-174 -10 -334 -27 -495 -54 -815 -136 -1479 -517 -1764
-1014 -102 -178 -141 -319 -148 -531 -8 -222 22 -354 123 -558 35 -68 42 -92
35 -106 -10 -17 -19 -148 -41 -561 -5 -91 -13 -230 -19 -310 -39 -524 -41
-684 -11 -752 l20 -45 92 -6 c51 -4 173 -10 270 -14 l177 -6 3 39 3 39 23 -42
22 -43 174 0 c95 0 302 -3 460 -7 l287 -6 -3 405 c-2 224 0 404 5 401 4 -2 7
-48 8 -101 1 -109 15 -162 47 -177 22 -10 22 -14 22 -225 0 -191 3 -220 20
-257 l19 -43 95 0 c119 0 126 3 126 49 l0 36 26 -33 c34 -42 93 -72 144 -72
47 0 112 30 134 61 l15 22 40 -36 c50 -45 97 -55 172 -36 31 8 65 12 75 8 11
-4 114 -8 231 -8 l212 -1 -16 48 c-9 26 -24 58 -34 72 -19 25 -43 161 -42 235
0 22 6 59 14 82 12 38 11 51 -13 140 -14 54 -29 108 -33 119 -6 21 -3 22 67
29 40 4 149 18 241 31 93 13 173 24 178 24 5 0 9 -26 9 -57 0 -32 3 -88 7
-125 6 -67 6 -68 34 -68 l29 0 0 -234 c0 -129 4 -246 10 -260 l10 -26 232 1
c344 1 1151 22 1336 35 l102 7 -2 276 -3 276 -30 0 c-16 -1 -40 -4 -52 -9
l-23 -7 0 581 0 580 25 40 c33 53 89 189 117 286 21 71 23 99 22 284 0 194 -2
210 -28 294 -51 167 -151 337 -296 504 -369 425 -1073 732 -1849 807 -157 16
-490 26 -611 19z m533 -262 c214 -56 401 -161 571 -322 115 -110 194 -217 261
-354 60 -124 89 -215 110 -356 46 -295 -30 -617 -203 -859 -113 -160 -306
-327 -474 -412 -85 -43 -279 -110 -308 -107 -18 2 32 32 188 112 118 60 216
114 217 120 2 6 5 122 7 259 l4 247 -68 0 c-79 0 -94 -11 -136 -102 -14 -32
-31 -58 -37 -58 -5 0 -20 22 -32 48 -52 108 -50 107 -143 110 l-83 3 8 -256 7
-255 -31 0 c-47 0 -72 70 -34 101 36 30 44 74 33 167 -6 48 -8 124 -4 170 l6
82 103 0 103 0 23 -56 c35 -83 48 -84 84 -8 l30 63 80 1 c76 0 81 1 97 28 10
15 31 45 48 67 82 112 167 330 190 491 18 129 25 446 11 473 l-13 23 -24 -23
c-29 -27 -36 -52 -64 -222 -25 -153 -56 -251 -114 -369 -93 -187 -229 -343
-350 -404 -38 -18 -78 -34 -89 -34 -18 0 -19 5 -15 78 4 69 11 92 56 188 74
156 79 206 26 240 -60 40 -101 -28 -145 -241 -26 -125 -38 -157 -104 -295 -41
-85 -78 -170 -81 -187 -8 -41 -18 -42 -35 -1 l-13 31 -27 -32 -27 -32 -6 34
c-4 19 -40 103 -81 186 -40 84 -79 175 -85 204 -6 29 -17 84 -24 122 -28 139
-72 225 -115 225 -62 0 -69 -94 -15 -215 66 -148 85 -207 82 -248 -4 -59 -24
-66 -92 -33 -142 70 -261 195 -354 374 -64 123 -95 222 -127 396 -31 166 -61
251 -90 251 -19 0 -20 -8 -23 -130 -3 -134 17 -351 44 -485 32 -152 133 -347
233 -449 64 -65 65 -65 69 -38 l3 27 143 0 c159 0 210 -11 259 -58 72 -68 84
-147 37 -237 l-30 -57 34 -40 c41 -47 48 -69 32 -100 -10 -20 -20 -23 -80 -26
-39 -2 -74 2 -80 8 -7 7 -4 10 11 10 11 0 37 7 57 15 40 17 40 18 -6 76 -15
20 -28 40 -28 43 0 3 18 22 39 42 68 61 78 146 28 224 -44 65 -98 84 -261 88
l-139 4 7 -256 7 -256 -46 0 c-29 0 -44 -4 -40 -10 4 -6 88 -50 189 -99 180
-89 231 -121 188 -121 -29 0 -215 66 -286 102 -107 53 -225 138 -322 230 -185
177 -288 352 -351 597 -101 398 45 882 353 1170 197 184 448 299 749 345 17 2
111 3 210 1 162 -3 192 -6 298 -33z m-868 -5 c-11 -7 -45 -24 -75 -36 -319
-134 -604 -449 -719 -796 -66 -201 -82 -360 -57 -554 9 -68 15 -126 13 -128
-8 -7 -45 92 -66 175 -31 121 -53 283 -52 397 0 167 43 404 112 621 46 143 31
131 219 192 200 66 516 139 605 141 36 1 38 0 20 -12z m1222 -12 c266 -52 569
-143 615 -184 23 -20 38 -54 68 -154 92 -297 119 -554 85 -810 -15 -118 -54
-269 -81 -316 -14 -25 -14 -23 -7 34 12 91 8 330 -6 415 -46 263 -179 517
-372 709 -109 109 -218 187 -372 267 -143 74 -135 79 70 39z m-2058 -217 c-7
-13 -24 -41 -39 -63 -51 -74 -131 -247 -170 -364 -53 -158 -71 -254 -77 -398
-9 -197 19 -367 91 -550 20 -51 36 -95 36 -98 0 -4 -23 6 -52 22 -115 63 -219
203 -278 376 -34 100 -60 229 -60 298 0 51 -12 63 -30 29 -18 -34 -41 -220
-35 -279 10 -86 33 -169 65 -231 65 -128 197 -275 319 -356 24 -15 38 -30 31
-32 -19 -7 -127 17 -225 50 -193 64 -301 138 -443 303 l-43 50 5 -40 c10 -77
73 -183 160 -271 120 -120 270 -202 477 -260 52 -14 101 -28 109 -31 11 -3 5
-13 -23 -38 -61 -53 -114 -67 -269 -72 l-138 -5 -77 78 c-159 161 -287 359
-328 509 -10 36 -19 117 -22 200 -5 123 -3 152 17 230 70 284 281 547 615 767
115 76 199 123 294 165 93 40 106 42 90 11z m2834 -27 c305 -143 543 -321 693
-520 72 -95 164 -273 189 -366 38 -141 29 -369 -21 -517 -45 -138 -196 -355
-332 -479 l-56 -51 -135 5 c-156 5 -211 20 -261 72 l-33 34 29 6 c160 34 391
142 504 238 125 105 227 261 218 336 -3 23 -8 19 -64 -49 -33 -41 -87 -97
-120 -123 -107 -88 -335 -183 -479 -201 l-50 -7 34 28 c18 15 60 50 93 76 104
85 223 253 262 369 41 122 40 316 -2 409 l-19 44 -13 -90 c-34 -245 -106 -419
-224 -543 -66 -69 -140 -121 -154 -107 -3 3 0 20 7 38 83 205 111 342 112 530
0 273 -81 546 -242 816 -29 47 -54 89 -56 94 -8 15 17 6 120 -42z m-1815
-1633 c19 -19 15 -66 -7 -78 -41 -21 -51 -13 -51 40 0 46 2 50 23 50 13 0 28
-5 35 -12z m766 -218 c13 -14 29 -35 35 -47 11 -23 11 -23 -44 -23 l-55 0 0
68 c0 79 7 93 27 54 8 -15 25 -38 37 -52z m164 8 l-3 -73 -47 -3 c-54 -3 -60
7 -28 48 11 14 20 31 20 39 0 16 39 61 52 61 5 0 8 -33 6 -72z m-2853 -67 c10
-16 13 -55 34 -421 11 -191 49 -627 56 -645 2 -5 4 214 4 488 l1 497 123 -89
122 -89 3 -126 c1 -69 -1 -126 -5 -126 -4 0 -32 13 -60 29 l-53 29 0 -74 0
-74 55 -27 55 -27 0 -128 c0 -70 -4 -128 -9 -128 -5 0 -28 7 -51 15 -23 8 -44
15 -46 15 -2 0 -4 -106 -4 -236 l0 -237 -127 7 c-70 4 -130 10 -133 12 -3 3
-7 61 -9 129 -2 96 -6 125 -17 129 -20 8 -21 -1 -28 -133 -3 -63 -8 -116 -10
-119 -3 -2 -32 -1 -65 3 l-61 7 0 62 c0 34 4 120 9 192 6 71 15 206 21 299 5
94 15 237 20 320 6 82 15 217 20 300 6 82 13 178 16 213 l6 63 61 -57 c34 -31
66 -64 72 -73z m4671 -987 c15 4 39 10 55 13 l29 6 0 -175 0 -175 -100 -12
c-56 -6 -110 -11 -120 -11 -20 0 -20 11 -20 661 l0 661 63 61 62 62 3 -549 2
-548 26 6z m-2756 984 c0 -4 -11 -8 -24 -8 -28 0 -39 30 -25 68 l10 25 19 -39
c11 -21 20 -42 20 -46z m2580 -187 l0 -148 -60 -37 -60 -37 0 -79 0 -80 25 10
c14 5 38 16 54 24 l29 15 4 -35 c2 -20 2 -87 0 -149 l-4 -114 -54 -22 -54 -21
0 -100 c0 -99 0 -100 23 -95 12 3 39 9 60 12 l37 7 0 -150 0 -150 -67 -6 c-38
-4 -93 -9 -124 -12 l-56 -5 -6 113 c-4 62 -7 262 -8 443 -1 182 -3 323 -5 315
-2 -8 -20 -206 -39 -440 -20 -234 -38 -426 -40 -428 -2 -3 -33 -7 -69 -9 l-64
-6 -6 44 c-3 24 -19 179 -36 344 -16 165 -34 341 -40 392 -18 163 -17 167 37
197 93 53 89 57 96 -103 8 -199 22 -208 30 -19 3 84 10 165 16 180 6 16 64 65
158 133 81 60 164 121 183 137 19 15 36 28 37 28 2 0 3 -67 3 -149z m-3233
109 c69 -42 84 -109 43 -190 -23 -44 -120 -154 -152 -171 -12 -7 -48 2 -125
32 -59 22 -109 42 -110 43 -7 7 180 272 204 287 36 24 99 24 140 -1z m2161
-15 c37 -33 192 -246 192 -263 0 -12 -189 -82 -221 -82 -32 0 -93 57 -145 135
-45 67 -57 139 -30 180 25 39 75 65 123 65 35 0 50 -7 81 -35z m-2564 13 c-30
-51 -105 -156 -123 -172 -22 -20 -22 -20 -87 12 -36 18 -64 38 -62 44 2 6 22
16 44 23 21 6 80 33 129 58 96 49 110 54 99 35z m3016 -84 c35 -13 66 -28 68
-33 2 -6 -26 -25 -62 -43 -64 -31 -66 -32 -86 -13 -22 20 -106 144 -117 172
-5 12 14 5 62 -22 38 -21 99 -49 135 -61z m-2462 -75 c16 -16 38 -48 47 -70
10 -21 22 -39 27 -39 4 0 8 23 8 51 0 44 2 50 15 39 12 -10 15 -7 21 14 3 14
7 26 9 26 1 0 49 -22 106 -49 119 -56 216 -91 254 -91 32 0 31 -3 -28 -137
-32 -75 -44 -93 -61 -93 -68 0 -583 104 -601 121 -6 7 10 28 48 61 58 50 97
110 97 147 0 25 10 51 20 51 4 0 21 -14 38 -31z m1767 -31 c16 -54 28 -72 87
-130 55 -53 65 -68 51 -72 -110 -34 -530 -116 -593 -116 -22 0 -31 12 -73 106
-26 59 -47 107 -45 108 2 2 41 15 88 30 47 15 132 49 189 76 57 28 105 50 107
50 2 0 4 -9 4 -21 0 -16 4 -19 20 -14 18 6 20 2 20 -44 0 -28 4 -51 9 -51 4 0
23 27 40 60 28 52 52 79 72 80 3 0 14 -28 24 -62z m-2712 -70 l27 -19 0 -383
0 -383 51 -7 c28 -4 52 -6 54 -4 1 2 17 143 34 313 37 355 39 368 54 361 7 -3
39 -16 72 -30 l60 -25 7 -98 c9 -115 59 -577 63 -581 1 -2 4 139 7 312 2 173
6 318 10 321 3 4 32 -4 64 -17 l59 -23 3 -143 c2 -117 5 -142 17 -142 13 0 15
23 15 136 l0 136 33 -7 c17 -4 48 -14 67 -23 l35 -17 3 -363 2 -362 -70 0 -70
0 0 150 c0 127 -2 150 -15 150 -13 0 -15 -23 -15 -151 l0 -152 -127 8 c-71 4
-130 9 -133 12 -3 2 -6 38 -8 79 -4 76 -10 85 -36 59 -11 -12 -14 -28 -9 -65
9 -77 0 -83 -122 -76 -55 4 -130 9 -167 12 l-68 6 0 540 0 540 38 -23 c20 -12
49 -31 65 -41z m1715 -208 l33 -60 -78 0 c-137 0 -274 12 -270 24 2 6 50 34
107 63 57 29 110 59 119 68 15 15 18 14 36 -9 11 -14 35 -52 53 -86z m-1575
84 c21 -8 21 -21 2 -189 -8 -71 -16 -150 -17 -175 -1 -25 -5 43 -8 150 -4 107
-10 203 -15 214 -6 14 -5 17 6 12 8 -3 22 -9 32 -12z m1923 -45 c68 -34 124
-63 124 -64 0 -2 3 -10 6 -19 5 -14 -13 -16 -170 -16 -97 0 -176 2 -176 5 0
14 76 155 83 155 5 0 64 -28 133 -61z m1358 -21 c39 -412 75 -832 71 -836 -2
-2 -30 -6 -63 -9 -56 -5 -59 -4 -65 18 -4 13 -7 50 -7 82 0 49 -3 57 -19 57
-16 0 -19 -9 -23 -74 -2 -41 -6 -77 -10 -81 -3 -3 -57 -9 -118 -12 -137 -7
-143 -3 -135 92 4 33 2 80 -3 105 l-10 45 -1 -46 c-1 -25 -4 -80 -7 -122 l-7
-77 -63 0 -64 0 0 280 c0 269 -1 280 -19 280 -52 0 -51 8 -51 -285 l0 -272
-46 -7 c-93 -12 -84 -40 -84 260 l0 267 -40 -7 -41 -6 3 82 3 83 85 23 c47 12
149 40 227 62 152 42 174 46 203 30 44 -24 62 -173 35 -297 -16 -76 -17 -87
-1 -163 9 -44 17 -102 18 -128 1 -38 2 -40 5 -12 25 265 65 632 71 658 6 29
15 37 72 62 35 16 67 27 71 25 3 -3 9 -37 13 -77z m-210 -63 c-6 -16 -24 -21
-24 -7 0 11 11 22 21 22 5 0 6 -7 3 -15z m-2187 -132 l133 -28 0 -41 0 -42 39
39 c33 34 45 39 83 39 60 0 106 -32 138 -95 24 -48 25 -57 25 -240 0 -213 -6
-237 -70 -294 -66 -58 -151 -36 -198 52 -20 39 -22 58 -25 235 -3 138 -7 192
-15 192 -7 0 -22 3 -34 6 l-23 6 0 -251 0 -251 -65 0 -65 0 0 260 c0 256 0
260 -21 260 -50 0 -59 15 -59 100 0 57 4 80 13 80 6 1 72 -12 144 -27z m536
-69 l37 -7 0 -223 c0 -124 4 -224 9 -224 16 0 23 93 16 227 -4 73 -4 153 -1
178 l7 45 66 0 65 0 -4 -247 c-4 -269 -8 -293 -63 -343 -22 -21 -37 -25 -85
-25 -51 0 -63 4 -89 29 -17 17 -36 46 -41 65 -5 20 -10 147 -10 284 l0 247 28
0 c15 0 44 -3 65 -6z m436 -17 c41 -21 61 -58 67 -127 5 -52 2 -74 -14 -109
-19 -41 -19 -48 -6 -90 8 -25 17 -84 21 -131 3 -47 12 -97 20 -112 l14 -28
-75 0 c-46 0 -78 4 -82 12 -4 6 -10 53 -13 104 -3 51 -9 96 -14 100 -4 4 -7
-43 -7 -104 l0 -112 -65 0 -65 0 0 305 0 305 98 0 c57 0 107 -5 121 -13z
m1995 -202 c-6 -16 -24 -21 -24 -7 0 11 11 22 21 22 5 0 6 -7 3 -15z"/>
<path d="M2439 3572 c5 -9 19 -26 30 -36 28 -25 27 -41 -11 -141 -29 -75 -36
-85 -53 -79 -48 14 -56 10 -96 -55 -21 -36 -39 -68 -39 -72 0 -3 18 -9 40 -13
23 -3 43 -12 46 -20 8 -21 -34 -135 -76 -206 -42 -71 -79 -110 -136 -145 -35
-21 -36 -23 -16 -29 12 -4 27 -16 32 -27 10 -18 23 -19 185 -19 96 0 175 3
175 7 0 3 -11 20 -24 37 -42 56 -66 114 -65 158 1 53 21 112 40 115 8 2 34
-26 58 -62 65 -95 63 -95 110 -31 22 30 44 57 49 60 4 2 21 -24 36 -59 26 -61
27 -65 12 -97 -9 -18 -31 -42 -49 -52 -30 -19 -31 -20 -9 -24 13 -2 28 -14 34
-28 l11 -24 190 0 c211 0 205 -3 127 65 -72 62 -87 85 -128 197 -23 62 -42
117 -42 122 0 5 25 6 55 3 64 -7 64 -11 15 97 -22 48 -38 68 -61 80 -30 15
-34 15 -51 -1 -10 -9 -20 -14 -23 -12 -2 3 -18 37 -35 76 -35 85 -38 123 -9
170 24 39 18 54 -13 34 -19 -12 -20 -11 -15 8 5 21 3 21 -149 21 -145 0 -154
-1 -145 -18z m251 -72 c0 -5 -5 -10 -11 -10 -5 0 -7 5 -4 10 3 6 8 10 11 10 2
0 4 -4 4 -10z m-146 -124 c-3 -15 -8 -25 -11 -23 -2 3 -1 17 3 31 3 15 8 25
11 23 2 -3 1 -17 -3 -31z m65 -135 l40 -78 -25 -24 -24 -23 -30 29 c-16 16
-32 36 -35 46 -6 17 21 129 31 129 2 0 22 -35 43 -79z m-132 -43 c-3 -8 -6 -5
-6 6 -1 11 2 17 5 13 3 -3 4 -12 1 -19z m442 -34 c2 -2 -16 -4 -42 -4 -25 0
-49 4 -52 10 -6 9 83 3 94 -6z m-509 -154 c0 -5 -4 -10 -10 -10 -5 0 -10 5
-10 10 0 6 5 10 10 10 6 0 10 -4 10 -10z m-13 -42 c-3 -8 -6 -5 -6 6 -1 11 2
17 5 13 3 -3 4 -12 1 -19z m-11 -65 c-10 -26 -18 -8 -9 23 5 21 8 24 11 11 2
-10 1 -25 -2 -34z"/>
<path d="M1809 3133 c-18 -48 -7 -318 16 -380 11 -29 22 -53 26 -53 16 0 39
159 39 271 0 124 -11 170 -45 183 -24 9 -25 9 -36 -21z"/>
<path d="M3363 3136 c-25 -21 -28 -32 -31 -98 -5 -85 13 -301 26 -324 12 -22
26 -2 48 71 28 92 23 375 -6 375 -5 0 -21 -11 -37 -24z"/>
<path d="M2018 2998 c-12 -14 -43 -61 -68 -104 l-45 -79 -3 -122 c-4 -133 7
-159 27 -65 7 31 27 82 44 112 77 139 87 163 87 209 0 67 -12 80 -42 49z"/>
<path d="M3167 3013 c-18 -17 -6 -111 19 -159 78 -145 93 -178 105 -228 6 -31
16 -53 21 -50 11 7 10 179 -3 233 -16 69 -123 224 -142 204z"/>
<path d="M3086 2823 c-13 -14 -5 -34 29 -67 19 -20 35 -44 35 -54 0 -11 7 -26
17 -33 9 -8 27 -36 39 -64 l23 -50 0 58 c1 66 -6 84 -61 146 -44 51 -73 73
-82 64z"/>
<path d="M2026 2733 c-31 -47 -46 -94 -46 -145 0 -54 16 -54 31 0 10 35 27 60
66 98 55 52 65 74 36 74 -10 0 -28 3 -40 6 -17 5 -27 -2 -47 -33z"/>
<path d="M226 1623 c-7 -25 -15 -135 -26 -368 -6 -110 -16 -288 -24 -395 -8
-107 -20 -280 -26 -384 -11 -203 -11 -206 37 -206 44 0 53 23 53 140 0 60 4
111 8 114 5 3 22 2 38 -3 26 -7 29 -12 31 -52 2 -24 5 -81 9 -126 l6 -81 39
-4 39 -4 0 61 c0 33 -18 325 -40 649 l-40 590 -42 43 c-47 48 -54 51 -62 26z
m77 -715 c4 -138 3 -148 -14 -148 -10 0 -22 8 -27 18 -12 22 0 412 13 432 12
18 21 -82 28 -302z"/>
<path d="M460 847 l0 -595 38 -5 c20 -2 40 -2 45 0 4 2 7 110 7 239 0 129 4
234 9 234 5 0 27 -6 49 -14 22 -8 43 -12 46 -9 3 4 6 51 6 105 l0 99 -55 25
-55 25 0 100 c0 54 2 99 5 99 3 0 28 -11 55 -25 27 -14 52 -25 55 -25 3 0 5
45 5 100 0 93 -1 100 -22 111 -13 7 -48 31 -78 54 -30 23 -67 50 -82 60 l-28
17 0 -595z"/>
<path d="M4917 1572 l-37 -38 0 -636 0 -637 93 6 c50 3 97 10 102 15 6 5 10
66 10 141 l0 132 -52 -2 -53 -2 0 529 c0 428 -3 530 -13 530 -7 0 -30 -17 -50
-38z"/>
<path d="M4794 1467 c-11 -7 -57 -40 -102 -75 l-82 -63 0 -544 0 -543 98 5
c72 4 100 9 110 21 17 22 16 192 -1 216 -11 15 -19 16 -61 6 -27 -6 -51 -8
-55 -5 -3 4 -8 52 -9 108 -3 92 -2 105 18 130 13 17 38 31 66 38 l44 11 0 120
c0 133 3 130 -72 92 -46 -24 -48 -20 -48 89 l1 102 64 40 65 40 0 112 c0 62
-3 113 -7 113 -5 -1 -17 -6 -29 -13z"/>
<path d="M4518 1265 c-22 -15 -39 -35 -42 -52 -5 -22 -36 -583 -36 -642 0 -9
-3 -11 -9 -5 -4 5 -16 144 -26 309 -10 165 -18 301 -19 302 -2 2 -88 -36 -93
-41 -4 -3 85 -907 89 -911 2 -2 26 -1 54 2 l50 5 18 242 c9 132 24 311 32 396
18 183 31 420 24 420 -3 0 -22 -11 -42 -25z"/>
<path d="M730 740 l0 -510 39 0 c21 0 66 -3 100 -6 l61 -7 0 95 0 96 -55 7
-55 6 0 377 c0 414 1 405 -61 437 l-29 16 0 -511z"/>
<path d="M1026 1008 c-14 -158 -67 -707 -72 -745 l-6 -43 51 0 51 0 0 74 c0
41 5 78 10 81 6 4 23 4 39 0 28 -6 29 -8 35 -86 l7 -79 41 0 41 0 -7 93 c-3
50 -21 235 -39 410 l-32 319 -35 19 c-19 10 -45 18 -57 19 -19 0 -22 -7 -27
-62z m93 -445 c1 -29 -2 -33 -25 -33 l-27 0 5 133 c6 177 20 196 34 47 7 -63
12 -130 13 -147z"/>
<path d="M1272 592 l3 -387 43 -3 42 -3 0 156 0 156 32 -3 c42 -4 46 -19 47
-180 l1 -128 40 0 40 0 0 348 0 348 -39 10 -39 11 -4 -128 c-2 -70 -6 -130
-10 -134 -4 -4 -19 -3 -35 2 l-28 10 -3 140 -3 141 -44 16 -45 15 2 -387z"/>
<path d="M4155 1071 c-22 -10 -45 -24 -51 -32 -6 -8 -14 -59 -18 -114 -3 -55
-22 -233 -41 -395 -19 -162 -35 -301 -35 -307 0 -9 15 -13 44 -13 l43 0 7 46
c3 26 6 62 6 80 0 27 5 35 25 40 14 3 31 4 39 1 15 -6 26 -51 26 -114 l0 -44
42 3 42 3 -3 60 c-1 33 -15 179 -32 325 -16 146 -32 313 -36 373 -3 59 -9 107
-12 107 -3 0 -24 -9 -46 -19z m16 -451 c4 -83 3 -85 -20 -88 l-24 -4 7 134 c4
73 10 142 14 153 7 23 18 -64 23 -195z"/>
<path d="M3825 936 l-90 -21 -3 -358 -2 -357 45 0 45 0 1 63 c0 34 0 102 -1
150 -1 87 -1 88 22 85 38 -5 48 -42 48 -176 l0 -123 48 3 c45 3 47 4 45 33 0
17 -4 82 -6 145 -3 67 -12 135 -22 163 -15 45 -15 51 2 100 12 35 18 82 18
147 0 82 -3 100 -23 133 -13 20 -27 37 -30 36 -4 -1 -47 -11 -97 -23z m49
-138 c33 -47 12 -150 -31 -156 -19 -3 -23 3 -28 42 -7 42 0 109 11 128 10 15
33 8 48 -14z"/>
<path d="M3840 732 c0 -72 16 -82 26 -16 5 36 3 49 -10 62 -15 15 -16 12 -16
-46z"/>
<path d="M3563 867 l-113 -30 0 -59 0 -58 35 0 35 0 2 -262 3 -263 48 -3 47
-3 0 279 0 280 34 6 c23 5 36 13 40 29 10 38 7 94 -6 104 -9 7 -51 0 -125 -20z"/>
<path d="M1702 783 c3 -55 4 -57 38 -68 l35 -12 3 -256 2 -257 45 0 45 0 0
250 0 250 40 0 40 0 0 53 0 53 -112 22 c-62 12 -119 22 -126 22 -9 0 -12 -15
-10 -57z"/>
<path d="M2033 766 c-44 -37 -53 -83 -53 -273 0 -237 22 -299 111 -318 118
-26 174 152 138 435 -12 102 -23 127 -68 157 -45 30 -92 30 -128 -1z m104
-116 c8 -17 13 -70 12 -160 0 -182 -24 -248 -66 -183 -15 23 -18 49 -18 184 0
118 4 161 14 173 19 22 43 16 58 -14z"/>
<path d="M2095 620 c-10 -46 16 -279 28 -248 11 28 1 258 -12 271 -5 5 -12 -3
-16 -23z"/>
<path d="M2300 524 c0 -213 2 -244 19 -281 47 -102 181 -92 211 16 12 44 26
427 16 464 -6 24 -11 27 -46 27 -22 0 -40 -3 -40 -7 -1 -5 -3 -100 -5 -213 -6
-222 -9 -250 -28 -250 -34 0 -37 22 -37 247 l0 223 -22 0 c-13 0 -33 3 -45 6
l-23 6 0 -238z"/>
<path d="M2610 465 l0 -285 45 0 45 0 0 115 c0 104 2 115 18 115 29 0 42 -21
42 -66 0 -22 3 -69 6 -103 l7 -61 45 0 45 0 -7 100 c-3 55 -13 120 -22 146
-14 40 -14 50 -1 82 37 93 29 184 -20 221 -21 18 -40 21 -114 21 l-89 0 0
-285z m152 150 c11 -45 -4 -89 -32 -93 -12 -2 -27 2 -31 10 -12 18 -11 75 2
99 16 30 51 21 61 -16z"/>
<path d="M2720 585 c0 -25 5 -45 10 -45 6 0 10 20 10 45 0 25 -4 45 -10 45 -5
0 -10 -20 -10 -45z"/>
<path d="M3111 712 c-19 -9 -48 -34 -65 -55 -29 -37 -31 -44 -31 -125 0 -54
-7 -108 -18 -141 -24 -77 -22 -157 7 -237 41 -111 101 -155 187 -135 24 6 81
11 125 11 l82 0 -9 38 c-4 20 -15 54 -24 75 -12 29 -15 68 -13 181 3 123 1
146 -14 162 -9 11 -24 49 -33 85 -22 86 -47 127 -90 145 -45 18 -63 18 -104
-4z m114 -38 c20 -22 25 -38 25 -79 0 -29 -7 -69 -15 -89 l-15 -36 40 0 c47 0
49 -7 25 -108 -14 -60 -14 -64 9 -126 l24 -63 -110 -7 c-128 -8 -151 0 -167
61 -17 60 -13 153 9 200 15 34 18 56 13 111 -4 52 -2 75 11 99 34 67 107 84
151 37z"/>
<path d="M3113 656 c-27 -23 -28 -28 -28 -118 -1 -76 -5 -102 -24 -142 -40
-84 -18 -176 52 -216 24 -13 29 -13 57 3 23 14 41 17 72 12 l41 -7 -7 28 c-15
60 -17 101 -8 167 l9 68 -26 -3 c-18 -2 -27 -10 -29 -26 -3 -19 -6 -21 -18
-11 -20 16 -18 43 8 92 28 56 27 121 -3 153 -29 31 -60 31 -96 0z m55 -80 c5
-37 -13 -55 -27 -29 -12 23 -3 65 13 60 6 -2 12 -16 14 -31z m-24 -215 c24
-27 34 -91 13 -91 -38 0 -47 12 -47 61 0 53 7 59 34 30z"/>
</g>
</svg>
